<mxfile host="65bd71144e">
    <diagram name="Page-1" id="a0GKX37r0jUPQa7Pxb1f">
        <mxGraphModel dx="1081" dy="525" grid="1" gridSize="10" guides="1" tooltips="1" connect="1" arrows="1" fold="1" page="1" pageScale="1" pageWidth="850" pageHeight="1100" math="0" shadow="0">
            <root>
                <mxCell id="0"/>
                <mxCell id="1" parent="0"/>
                <mxCell id="qo31EmQsLFviCPmy-kX7-78" value="" style="rounded=0;orthogonalLoop=1;jettySize=auto;html=1;" parent="1" source="qo31EmQsLFviCPmy-kX7-1" target="qo31EmQsLFviCPmy-kX7-77" edge="1">
                    <mxGeometry relative="1" as="geometry"/>
                </mxCell>
                <mxCell id="qo31EmQsLFviCPmy-kX7-81" style="rounded=0;orthogonalLoop=1;jettySize=auto;html=1;exitX=0.5;exitY=0;exitDx=0;exitDy=0;" parent="1" source="qo31EmQsLFviCPmy-kX7-1" target="qo31EmQsLFviCPmy-kX7-79" edge="1">
                    <mxGeometry relative="1" as="geometry"/>
                </mxCell>
                <mxCell id="qo31EmQsLFviCPmy-kX7-82" style="rounded=0;orthogonalLoop=1;jettySize=auto;html=1;" parent="1" source="qo31EmQsLFviCPmy-kX7-1" target="qo31EmQsLFviCPmy-kX7-80" edge="1">
                    <mxGeometry relative="1" as="geometry"/>
                </mxCell>
                <mxCell id="25" style="edgeStyle=none;html=1;entryX=0.5;entryY=0;entryDx=0;entryDy=0;" parent="1" source="qo31EmQsLFviCPmy-kX7-1" target="21" edge="1">
                    <mxGeometry relative="1" as="geometry"/>
                </mxCell>
                <mxCell id="27" value="n" style="edgeLabel;html=1;align=center;verticalAlign=middle;resizable=0;points=[];" parent="25" vertex="1" connectable="0">
                    <mxGeometry x="-0.4242" y="3" relative="1" as="geometry">
                        <mxPoint as="offset"/>
                    </mxGeometry>
                </mxCell>
                <mxCell id="qo31EmQsLFviCPmy-kX7-1" value="product" style="html=1;whiteSpace=wrap;" parent="1" vertex="1">
                    <mxGeometry x="360" y="290" width="110" height="50" as="geometry"/>
                </mxCell>
                <mxCell id="qo31EmQsLFviCPmy-kX7-11" value="n" style="edgeStyle=orthogonalEdgeStyle;rounded=0;orthogonalLoop=1;jettySize=auto;html=1;entryX=0.936;entryY=0.49;entryDx=0;entryDy=0;entryPerimeter=0;" parent="1" source="qo31EmQsLFviCPmy-kX7-3" target="qo31EmQsLFviCPmy-kX7-10" edge="1">
                    <mxGeometry relative="1" as="geometry"/>
                </mxCell>
                <mxCell id="qo31EmQsLFviCPmy-kX7-60" style="rounded=0;orthogonalLoop=1;jettySize=auto;html=1;" parent="1" source="qo31EmQsLFviCPmy-kX7-3" target="qo31EmQsLFviCPmy-kX7-64" edge="1">
                    <mxGeometry relative="1" as="geometry">
                        <mxPoint x="810" y="230" as="targetPoint"/>
                    </mxGeometry>
                </mxCell>
                <mxCell id="qo31EmQsLFviCPmy-kX7-67" style="rounded=0;orthogonalLoop=1;jettySize=auto;html=1;" parent="1" source="qo31EmQsLFviCPmy-kX7-3" target="qo31EmQsLFviCPmy-kX7-65" edge="1">
                    <mxGeometry relative="1" as="geometry"/>
                </mxCell>
                <mxCell id="qo31EmQsLFviCPmy-kX7-68" style="rounded=0;orthogonalLoop=1;jettySize=auto;html=1;" parent="1" source="qo31EmQsLFviCPmy-kX7-3" target="qo31EmQsLFviCPmy-kX7-66" edge="1">
                    <mxGeometry relative="1" as="geometry"/>
                </mxCell>
                <mxCell id="qo31EmQsLFviCPmy-kX7-3" value="staff" style="html=1;whiteSpace=wrap;" parent="1" vertex="1">
                    <mxGeometry x="690" y="290" width="110" height="50" as="geometry"/>
                </mxCell>
                <mxCell id="qo31EmQsLFviCPmy-kX7-15" value="1" style="edgeStyle=orthogonalEdgeStyle;rounded=0;orthogonalLoop=1;jettySize=auto;html=1;exitX=0.614;exitY=0;exitDx=0;exitDy=0;entryX=0.5;entryY=1;entryDx=0;entryDy=0;exitPerimeter=0;" parent="1" source="qo31EmQsLFviCPmy-kX7-4" target="qo31EmQsLFviCPmy-kX7-14" edge="1">
                    <mxGeometry relative="1" as="geometry">
                        <Array as="points">
                            <mxPoint x="273" y="460"/>
                            <mxPoint x="273" y="438"/>
                        </Array>
                    </mxGeometry>
                </mxCell>
                <mxCell id="qo31EmQsLFviCPmy-kX7-4" value="inventory" style="html=1;whiteSpace=wrap;" parent="1" vertex="1">
                    <mxGeometry x="217.5" y="460" width="110" height="50" as="geometry"/>
                </mxCell>
                <mxCell id="qo31EmQsLFviCPmy-kX7-12" value="n" style="edgeStyle=orthogonalEdgeStyle;rounded=0;orthogonalLoop=1;jettySize=auto;html=1;" parent="1" source="qo31EmQsLFviCPmy-kX7-10" target="qo31EmQsLFviCPmy-kX7-1" edge="1">
                    <mxGeometry relative="1" as="geometry"/>
                </mxCell>
                <mxCell id="qo31EmQsLFviCPmy-kX7-10" value="manage" style="shape=rhombus;perimeter=rhombusPerimeter;whiteSpace=wrap;html=1;align=center;" parent="1" vertex="1">
                    <mxGeometry x="510" y="285" width="140" height="60" as="geometry"/>
                </mxCell>
                <mxCell id="qo31EmQsLFviCPmy-kX7-17" style="edgeStyle=orthogonalEdgeStyle;rounded=0;orthogonalLoop=1;jettySize=auto;html=1;" parent="1" source="qo31EmQsLFviCPmy-kX7-14" target="qo31EmQsLFviCPmy-kX7-1" edge="1">
                    <mxGeometry relative="1" as="geometry">
                        <mxPoint x="190" y="310" as="targetPoint"/>
                        <Array as="points">
                            <mxPoint x="273" y="310"/>
                        </Array>
                    </mxGeometry>
                </mxCell>
                <mxCell id="28" value="n" style="edgeLabel;html=1;align=center;verticalAlign=middle;resizable=0;points=[];" parent="qo31EmQsLFviCPmy-kX7-17" vertex="1" connectable="0">
                    <mxGeometry x="0.0798" y="-1" relative="1" as="geometry">
                        <mxPoint as="offset"/>
                    </mxGeometry>
                </mxCell>
                <mxCell id="qo31EmQsLFviCPmy-kX7-14" value="has" style="shape=rhombus;perimeter=rhombusPerimeter;whiteSpace=wrap;html=1;align=center;" parent="1" vertex="1">
                    <mxGeometry x="185" y="355" width="175" height="60" as="geometry"/>
                </mxCell>
                <mxCell id="qo31EmQsLFviCPmy-kX7-28" value="1" style="edgeStyle=orthogonalEdgeStyle;rounded=0;orthogonalLoop=1;jettySize=auto;html=1;" parent="1" source="qo31EmQsLFviCPmy-kX7-26" target="qo31EmQsLFviCPmy-kX7-27" edge="1">
                    <mxGeometry relative="1" as="geometry"/>
                </mxCell>
                <mxCell id="qo31EmQsLFviCPmy-kX7-26" value="admin" style="html=1;whiteSpace=wrap;" parent="1" vertex="1">
                    <mxGeometry x="700" y="490" width="110" height="50" as="geometry"/>
                </mxCell>
                <mxCell id="qo31EmQsLFviCPmy-kX7-29" value="n" style="edgeStyle=orthogonalEdgeStyle;rounded=0;orthogonalLoop=1;jettySize=auto;html=1;entryX=0.59;entryY=0.993;entryDx=0;entryDy=0;entryPerimeter=0;" parent="1" source="qo31EmQsLFviCPmy-kX7-27" target="qo31EmQsLFviCPmy-kX7-3" edge="1">
                    <mxGeometry relative="1" as="geometry"/>
                </mxCell>
                <mxCell id="qo31EmQsLFviCPmy-kX7-27" value="manage" style="rhombus;whiteSpace=wrap;html=1;" parent="1" vertex="1">
                    <mxGeometry x="715" y="370" width="80" height="80" as="geometry"/>
                </mxCell>
                <mxCell id="qo31EmQsLFviCPmy-kX7-64" value="fullname" style="ellipse;whiteSpace=wrap;html=1;" parent="1" vertex="1">
                    <mxGeometry x="715" y="185" width="50" height="30" as="geometry"/>
                </mxCell>
                <mxCell id="qo31EmQsLFviCPmy-kX7-65" value="account" style="ellipse;whiteSpace=wrap;html=1;" parent="1" vertex="1">
                    <mxGeometry x="630" y="185" width="50" height="40" as="geometry"/>
                </mxCell>
                <mxCell id="qo31EmQsLFviCPmy-kX7-66" value="password" style="ellipse;whiteSpace=wrap;html=1;" parent="1" vertex="1">
                    <mxGeometry x="800" y="182.5" width="60" height="45" as="geometry"/>
                </mxCell>
                <mxCell id="qo31EmQsLFviCPmy-kX7-77" value="name" style="ellipse;whiteSpace=wrap;html=1;" parent="1" vertex="1">
                    <mxGeometry x="327.5" y="205" width="45" height="35" as="geometry"/>
                </mxCell>
                <mxCell id="qo31EmQsLFviCPmy-kX7-79" value="quantity" style="ellipse;whiteSpace=wrap;html=1;" parent="1" vertex="1">
                    <mxGeometry x="380" y="205" width="45" height="35" as="geometry"/>
                </mxCell>
                <mxCell id="qo31EmQsLFviCPmy-kX7-80" value="id" style="ellipse;whiteSpace=wrap;html=1;" parent="1" vertex="1">
                    <mxGeometry x="430" y="205" width="45" height="35" as="geometry"/>
                </mxCell>
                <mxCell id="26" value="1" style="edgeStyle=none;html=1;exitX=0.5;exitY=1;exitDx=0;exitDy=0;entryX=0.5;entryY=0;entryDx=0;entryDy=0;" parent="1" source="21" target="23" edge="1">
                    <mxGeometry relative="1" as="geometry"/>
                </mxCell>
                <mxCell id="21" value="in" style="shape=rhombus;perimeter=rhombusPerimeter;whiteSpace=wrap;html=1;align=center;" parent="1" vertex="1">
                    <mxGeometry x="380" y="390" width="175" height="60" as="geometry"/>
                </mxCell>
                <mxCell id="23" value="category" style="html=1;whiteSpace=wrap;" parent="1" vertex="1">
                    <mxGeometry x="425" y="490" width="110" height="50" as="geometry"/>
                </mxCell>
            </root>
        </mxGraphModel>
    </diagram>
</mxfile>